<svg width="24" height="24" viewBox="0 0 24 24" fill="none" xmlns="http://www.w3.org/2000/svg">
<g opacity="0.75" clip-path="url(#clip0)">
<path d="M23.4992 6.20305C23.3601 5.70456 23.0948 5.25038 22.7288 4.88442C22.3629 4.51847 21.9087 4.25313 21.4102 4.11405C19.5402 3.61305 12.0102 3.61305 12.0102 3.61305C12.0102 3.61305 4.5012 3.60305 2.6112 4.11405C2.11277 4.25337 1.65871 4.51893 1.29294 4.88505C0.92716 5.25118 0.662035 5.70549 0.523195 6.20405C0.168405 8.11887 -0.00668926 10.0627 0.000195359 12.0101C-0.00538317 13.9504 0.169706 15.8871 0.523195 17.7951C0.662185 18.2934 0.927377 18.7475 1.29314 19.1135C1.65891 19.4794 2.11288 19.7448 2.6112 19.8841C4.4802 20.3861 12.0112 20.3861 12.0112 20.3861C12.0112 20.3861 19.5192 20.3861 21.4102 19.8841C21.9088 19.7449 22.3631 19.4794 22.729 19.1133C23.095 18.7471 23.3603 18.2927 23.4992 17.7941C23.8449 15.8857 24.0123 13.9494 23.9992 12.0101C24.0138 10.0627 23.8464 8.11825 23.4992 6.20205V6.20305ZM9.6082 15.6031V8.40705L15.8742 12.0111L9.6082 15.6031Z" fill="#808080"/>
</g>
<defs>
<clipPath id="clip0">
<rect width="24" height="24" fill="white"/>
</clipPath>
</defs>
</svg>
